<svg width="1920" height="1080" viewBox="0 0 1920 1080" fill="none" xmlns="http://www.w3.org/2000/svg" xmlns:xlink="http://www.w3.org/1999/xlink">
<g clip-path="url(#clip0_25_2)">
<path d="M1920 0H0V1080H1920V0Z" fill="#235E64"/>
<path d="M1920 0H0V1080H1920V0Z" fill="url(#pattern0_25_2)" fill-opacity="0.15" style="mix-blend-mode:screen"/>
<g filter="url(#filter0_d_25_2)">
<path d="M64 31.792C128 63.7581 277 114.941 405 141C533 167.059 640 112.072 768 159.5C896 206.928 1008 283.216 1136 282C1264 280.784 1408 137.352 1536 100C1664 62.6483 1621.5 10.5 1809.5 60.5L1920 100V290.116L1856 319.478C1792 348.838 1664 407.56 1536 414.551C1408 421.541 1280 376.801 1152 364.218C1024 351.635 896 371.208 768 351.215C640 331.082 516 319.477 384 282.427C263.5 255.702 134.5 232.379 0 282.427V0L64 31.792Z" fill="#FEFFD3"/>
<path d="M64 31.792C128 63.7581 277 114.941 405 141C533 167.059 640 112.072 768 159.5C896 206.928 1008 283.216 1136 282C1264 280.784 1408 137.352 1536 100C1664 62.6483 1621.5 10.5 1809.5 60.5L1920 100V290.116L1856 319.478C1792 348.838 1664 407.56 1536 414.551C1408 421.541 1280 376.801 1152 364.218C1024 351.635 896 371.208 768 351.215C640 331.082 516 319.477 384 282.427C263.5 255.702 134.5 232.379 0 282.427V0L64 31.792Z" fill="url(#pattern1_25_2)" style="mix-blend-mode:overlay"/>
</g>
<g filter="url(#filter1_d_25_2)">
<path d="M0 282.427C134.5 232.378 263.5 255.702 384 282.427C516 319.477 640 331.082 768 351.215C896 371.208 1024 351.634 1152 364.218C1280 376.801 1408 421.541 1536 414.551C1664 407.56 1792 348.838 1856 319.477L1920 290.116V519.4C1734.5 498.49 1570.5 449.281 1285 473.596C1192.02 470.493 1028.88 485.291 897.497 501.448C943.695 504.763 989.893 506.983 1036.09 509.904C946.727 504.255 857.364 501.232 768 487.816C640 468.688 512 428.327 384 417.973C256 407.532 128 427.186 64 436.926L0 446.753V282.427Z" fill="#EFD66B"/>
<path d="M0 282.427C134.5 232.378 263.5 255.702 384 282.427C516 319.477 640 331.082 768 351.215C896 371.208 1024 351.634 1152 364.218C1280 376.801 1408 421.541 1536 414.551C1664 407.56 1792 348.838 1856 319.477L1920 290.116V519.4C1734.5 498.49 1570.5 449.281 1285 473.596C1192.02 470.493 1028.88 485.291 897.497 501.448C943.695 504.763 989.893 506.983 1036.09 509.904C946.727 504.255 857.364 501.232 768 487.816C640 468.688 512 428.327 384 417.973C256 407.532 128 427.186 64 436.926L0 446.753V282.427Z" fill="url(#pattern2_25_2)" style="mix-blend-mode:overlay"/>
</g>
<g filter="url(#filter2_d_25_2)">
<path d="M1285 473.595C1570.5 449.28 1734.5 498.49 1920 519.4V565.117L1856 578.711C1844.2 581.217 1830.23 584.184 1814.48 587.382C1744.8 589.407 1640.4 590.528 1536 579.507C1408 566.082 1280 534.496 1152 519.755C1067.17 509.927 982.334 507.535 897.501 501.447C1028.88 485.291 1192.03 470.492 1285 473.595Z" fill="#D08442" style="mix-blend-mode:plus-lighter" shape-rendering="crispEdges"/>
<path d="M1285 473.595C1570.5 449.28 1734.5 498.49 1920 519.4V565.117L1856 578.711C1844.2 581.217 1830.23 584.184 1814.48 587.382C1744.8 589.407 1640.4 590.528 1536 579.507C1408 566.082 1280 534.496 1152 519.755C1067.17 509.927 982.334 507.535 897.501 501.447C1028.88 485.291 1192.03 470.492 1285 473.595Z" fill="url(#pattern3_25_2)" style="mix-blend-mode:overlay" shape-rendering="crispEdges"/>
</g>
<g filter="url(#filter3_d_25_2)">
<path d="M64 436.926C128 427.186 256 407.532 384 417.974C512 428.327 640 468.689 768 487.816C896 507.032 1024 504.926 1152 519.755C1280 534.496 1408 566.082 1536 579.507C1640.4 590.528 1744.8 589.407 1814.48 587.382C1744.8 601.53 1640.4 620.178 1536 623.217C1408 626.842 1280 607.107 1152 608.919C1024 610.731 896 634.293 768 646.88C640 659.466 512 661.077 384 642.852C256 624.526 128 586.263 64 567.132L0 548V446.753L64 436.926Z" fill="#DBA854"/>
<path d="M64 436.926C128 427.186 256 407.532 384 417.974C512 428.327 640 468.689 768 487.816C896 507.032 1024 504.926 1152 519.755C1280 534.496 1408 566.082 1536 579.507C1640.4 590.528 1744.8 589.407 1814.48 587.382C1744.8 601.53 1640.4 620.178 1536 623.217C1408 626.842 1280 607.107 1152 608.919C1024 610.731 896 634.293 768 646.88C640 659.466 512 661.077 384 642.852C256 624.526 128 586.263 64 567.132L0 548V446.753L64 436.926Z" fill="url(#pattern4_25_2)" fill-opacity="0.75" style="mix-blend-mode:overlay"/>
</g>
<g filter="url(#filter4_d_25_2)">
<path d="M0 826L38.5859 839H0V826Z" fill="#D08442"/>
<path d="M0 826L38.5859 839H0V826Z" fill="url(#pattern5_25_2)" fill-opacity="0.75" style="mix-blend-mode:luminosity"/>
<path d="M64 567.132C128 586.263 256 624.526 384 642.852C512 661.077 640 659.466 768 646.88C896 634.293 1024 610.731 1152 608.919C1280 607.106 1408 626.842 1536 623.217C1664 619.491 1792 592.304 1856 578.711L1920 565.117V734.975C1843.5 717.196 1793.5 716.262 1715.5 734.975C1669 746.13 1549 797.722 1366 807.482C1283.5 807.482 1243 816.293 1115 815.5C987 814.707 896 854.11 768 829.699C640 805.447 512 734.117 384 719.852C256 705.586 128 748.383 64 769.782L0 791.182V548L64 567.132Z" fill="#D08442"/>
<path d="M64 567.132C128 586.263 256 624.526 384 642.852C512 661.077 640 659.466 768 646.88C896 634.293 1024 610.731 1152 608.919C1280 607.106 1408 626.842 1536 623.217C1664 619.491 1792 592.304 1856 578.711L1920 565.117V734.975C1843.5 717.196 1793.5 716.262 1715.5 734.975C1669 746.13 1549 797.722 1366 807.482C1283.5 807.482 1243 816.293 1115 815.5C987 814.707 896 854.11 768 829.699C640 805.447 512 734.117 384 719.852C256 705.586 128 748.383 64 769.782L0 791.182V548L64 567.132Z" fill="url(#pattern6_25_2)" fill-opacity="0.75" style="mix-blend-mode:luminosity"/>
</g>
<g filter="url(#filter5_d_25_2)">
<path d="M64 769.783C128 748.384 256 705.586 384 719.852C512 734.118 640 805.448 768 829.7C896 854.11 987 814.708 1115 815.5C1243 816.293 1283.5 807.483 1366 807.483C1549 797.722 1669 746.13 1715.5 734.975C1793.5 716.262 1843.5 717.196 1920 734.975V998.5L1856 991.563C1792 984.813 1664 970.938 1536 970.375C1408 969.813 1280 982.188 1152 968.125C1024 954.063 896 913.563 768 907C640 900.438 512 927.813 384 920.125C256 912.25 128 869.125 64 847.563L0 826V791.182L64 769.783Z" fill="#DB784F"/>
<path d="M64 769.783C128 748.384 256 705.586 384 719.852C512 734.118 640 805.448 768 829.7C896 854.11 987 814.708 1115 815.5C1243 816.293 1283.5 807.483 1366 807.483C1549 797.722 1669 746.13 1715.5 734.975C1793.5 716.262 1843.5 717.196 1920 734.975V998.5L1856 991.563C1792 984.813 1664 970.938 1536 970.375C1408 969.813 1280 982.188 1152 968.125C1024 954.063 896 913.563 768 907C640 900.438 512 927.813 384 920.125C256 912.25 128 869.125 64 847.563L0 826V791.182L64 769.783Z" fill="url(#pattern7_25_2)" fill-opacity="0.65" style="mix-blend-mode:difference"/>
</g>
<g filter="url(#filter6_d_25_2)">
<path d="M0 826L64 847.562C128 869.125 256 912.25 384 920.125C512 927.813 640 900.438 768 907C896 913.563 1024 954.062 1152 968.125C1280 982.187 1408 969.812 1536 970.375C1664 970.938 1792 984.813 1856 991.563L1920 998.5V1081H1856C1792 1081 1664 1081 1536 1081C1408 1081 1280 1081 1152 1081C1024 1081 896 1081 768 1081C640 1081 512 1081 384 1081C256 1081 128 1081 64 1081H0V826Z" fill="#820128"/>
<path d="M0 826L64 847.562C128 869.125 256 912.25 384 920.125C512 927.813 640 900.438 768 907C896 913.563 1024 954.062 1152 968.125C1280 982.187 1408 969.812 1536 970.375C1664 970.938 1792 984.813 1856 991.563L1920 998.5V1081H1856C1792 1081 1664 1081 1536 1081C1408 1081 1280 1081 1152 1081C1024 1081 896 1081 768 1081C640 1081 512 1081 384 1081C256 1081 128 1081 64 1081H0V826Z" fill="url(#pattern8_25_2)" style="mix-blend-mode:soft-light"/>
</g>
</g>
<defs>
<filter id="filter0_d_25_2" x="-5" y="-25" width="1970" height="465.288" filterUnits="userSpaceOnUse" color-interpolation-filters="sRGB">
<feFlood flood-opacity="0" result="BackgroundImageFix"/>
<feColorMatrix in="SourceAlpha" type="matrix" values="0 0 0 0 0 0 0 0 0 0 0 0 0 0 0 0 0 0 127 0" result="hardAlpha"/>
<feOffset dx="20"/>
<feGaussianBlur stdDeviation="12.5"/>
<feComposite in2="hardAlpha" operator="out"/>
<feColorMatrix type="matrix" values="0 0 0 0 0 0 0 0 0 0 0 0 0 0 0 0 0 0 0.4 0"/>
<feBlend mode="normal" in2="BackgroundImageFix" result="effect1_dropShadow_25_2"/>
<feBlend mode="normal" in="SourceGraphic" in2="effect1_dropShadow_25_2" result="shape"/>
</filter>
<filter id="filter1_d_25_2" x="0" y="228" width="1970" height="316.4" filterUnits="userSpaceOnUse" color-interpolation-filters="sRGB">
<feFlood flood-opacity="0" result="BackgroundImageFix"/>
<feColorMatrix in="SourceAlpha" type="matrix" values="0 0 0 0 0 0 0 0 0 0 0 0 0 0 0 0 0 0 127 0" result="hardAlpha"/>
<feOffset dx="25"/>
<feGaussianBlur stdDeviation="12.5"/>
<feComposite in2="hardAlpha" operator="out"/>
<feColorMatrix type="matrix" values="0 0 0 0 0 0 0 0 0 0 0 0 0 0 0 0 0 0 0.5 0"/>
<feBlend mode="normal" in2="BackgroundImageFix" result="effect1_dropShadow_25_2"/>
<feBlend mode="normal" in="SourceGraphic" in2="effect1_dropShadow_25_2" result="shape"/>
</filter>
<filter id="filter2_d_25_2" x="897.501" y="447" width="1062.5" height="161.695" filterUnits="userSpaceOnUse" color-interpolation-filters="sRGB">
<feFlood flood-opacity="0" result="BackgroundImageFix"/>
<feColorMatrix in="SourceAlpha" type="matrix" values="0 0 0 0 0 0 0 0 0 0 0 0 0 0 0 0 0 0 127 0" result="hardAlpha"/>
<feOffset dx="20"/>
<feGaussianBlur stdDeviation="10"/>
<feComposite in2="hardAlpha" operator="out"/>
<feColorMatrix type="matrix" values="0 0 0 0 0 0 0 0 0 0 0 0 0 0 0 0 0 0 0.5 0"/>
<feBlend mode="normal" in2="BackgroundImageFix" result="effect1_dropShadow_25_2"/>
<feBlend mode="normal" in="SourceGraphic" in2="effect1_dropShadow_25_2" result="shape"/>
</filter>
<filter id="filter3_d_25_2" x="0" y="400" width="1849.48" height="271.438" filterUnits="userSpaceOnUse" color-interpolation-filters="sRGB">
<feFlood flood-opacity="0" result="BackgroundImageFix"/>
<feColorMatrix in="SourceAlpha" type="matrix" values="0 0 0 0 0 0 0 0 0 0 0 0 0 0 0 0 0 0 127 0" result="hardAlpha"/>
<feOffset dx="20"/>
<feGaussianBlur stdDeviation="7.5"/>
<feComposite in2="hardAlpha" operator="out"/>
<feColorMatrix type="matrix" values="0 0 0 0 0 0 0 0 0 0 0 0 0 0 0 0 0 0 0.4 0"/>
<feBlend mode="normal" in2="BackgroundImageFix" result="effect1_dropShadow_25_2"/>
<feBlend mode="normal" in="SourceGraphic" in2="effect1_dropShadow_25_2" result="shape"/>
</filter>
<filter id="filter4_d_25_2" x="-15" y="533" width="1950" height="321" filterUnits="userSpaceOnUse" color-interpolation-filters="sRGB">
<feFlood flood-opacity="0" result="BackgroundImageFix"/>
<feColorMatrix in="SourceAlpha" type="matrix" values="0 0 0 0 0 0 0 0 0 0 0 0 0 0 0 0 0 0 127 0" result="hardAlpha"/>
<feOffset/>
<feGaussianBlur stdDeviation="7.5"/>
<feComposite in2="hardAlpha" operator="out"/>
<feColorMatrix type="matrix" values="0 0 0 0 0 0 0 0 0 0 0 0 0 0 0 0 0 0 0.65 0"/>
<feBlend mode="normal" in2="BackgroundImageFix" result="effect1_dropShadow_25_2"/>
<feBlend mode="normal" in="SourceGraphic" in2="effect1_dropShadow_25_2" result="shape"/>
</filter>
<filter id="filter5_d_25_2" x="-16" y="701" width="1960" height="321.5" filterUnits="userSpaceOnUse" color-interpolation-filters="sRGB">
<feFlood flood-opacity="0" result="BackgroundImageFix"/>
<feColorMatrix in="SourceAlpha" type="matrix" values="0 0 0 0 0 0 0 0 0 0 0 0 0 0 0 0 0 0 127 0" result="hardAlpha"/>
<feOffset dx="4" dy="4"/>
<feGaussianBlur stdDeviation="10"/>
<feComposite in2="hardAlpha" operator="out"/>
<feColorMatrix type="matrix" values="0 0 0 0 0 0 0 0 0 0 0 0 0 0 0 0 0 0 0.75 0"/>
<feBlend mode="normal" in2="BackgroundImageFix" result="effect1_dropShadow_25_2"/>
<feBlend mode="normal" in="SourceGraphic" in2="effect1_dropShadow_25_2" result="shape"/>
</filter>
<filter id="filter6_d_25_2" x="-16" y="806" width="1960" height="295" filterUnits="userSpaceOnUse" color-interpolation-filters="sRGB">
<feFlood flood-opacity="0" result="BackgroundImageFix"/>
<feColorMatrix in="SourceAlpha" type="matrix" values="0 0 0 0 0 0 0 0 0 0 0 0 0 0 0 0 0 0 127 0" result="hardAlpha"/>
<feOffset dx="4"/>
<feGaussianBlur stdDeviation="10"/>
<feComposite in2="hardAlpha" operator="out"/>
<feColorMatrix type="matrix" values="0 0 0 0 0 0 0 0 0 0 0 0 0 0 0 0 0 0 0.45 0"/>
<feBlend mode="normal" in2="BackgroundImageFix" result="effect1_dropShadow_25_2"/>
<feBlend mode="normal" in="SourceGraphic" in2="effect1_dropShadow_25_2" result="shape"/>
</filter>
<clipPath id="clip0_25_2">
<rect width="1920" height="1080" fill="white"/>
</clipPath>
<pattern id="pattern0_25_2" patternUnits="userSpaceOnUse" patternTransform="matrix(900 0 0 450 0 315)" preserveAspectRatio="none" viewBox="0 0 900 450" width="1" height="1">
<use xlink:href="#pattern0_25_2_inner" transform="translate(0 -450)"/>
<use xlink:href="#pattern0_25_2_inner" transform="translate(450 -225)"/>
<g id="pattern0_25_2_inner">
<g clip-path="url(#clip1_25_2)">
<rect width="450" height="450" fill="black"/>
<rect width="450" height="450"/>
</g>
</g>
<use xlink:href="#pattern0_25_2_inner" transform="translate(450 225)"/>
</pattern><pattern id="pattern1_25_2" patternUnits="userSpaceOnUse" patternTransform="matrix(900 0 0 450 1470 -14.2293)" preserveAspectRatio="none" viewBox="0 0 900 450" width="1" height="1">
<use xlink:href="#pattern1_25_2_inner" transform="translate(0 -450)"/>
<use xlink:href="#pattern1_25_2_inner" transform="translate(450 -225)"/>
<g id="pattern1_25_2_inner">
<g clip-path="url(#clip2_25_2)">
<rect width="450" height="450" fill="black"/>
<rect width="450" height="450"/>
</g>
</g>
<use xlink:href="#pattern1_25_2_inner" transform="translate(450 225)"/>
</pattern><pattern id="pattern2_25_2" patternUnits="userSpaceOnUse" patternTransform="matrix(450 0 0 900 735 150.889)" preserveAspectRatio="none" viewBox="0 0 450 900" width="1" height="1">
<use xlink:href="#pattern2_25_2_inner" transform="translate(-450 0)"/>
<g id="pattern2_25_2_inner">
<g clip-path="url(#clip3_25_2)">
<rect width="450" height="450" fill="black"/>
<rect width="450" height="450"/>
</g>
</g>
<use xlink:href="#pattern2_25_2_inner" transform="translate(-225 450)"/>
<use xlink:href="#pattern2_25_2_inner" transform="translate(225 450)"/>
</pattern><pattern id="pattern3_25_2" patternUnits="userSpaceOnUse" patternTransform="matrix(900 0 0 450 1183.75 294.904)" preserveAspectRatio="none" viewBox="0 0 900 450" width="1" height="1">
<use xlink:href="#pattern3_25_2_inner" transform="translate(0 -450)"/>
<use xlink:href="#pattern3_25_2_inner" transform="translate(450 -225)"/>
<g id="pattern3_25_2_inner">
<g clip-path="url(#clip4_25_2)">
<rect width="450" height="450" fill="black"/>
<rect width="450" height="450"/>
</g>
</g>
<use xlink:href="#pattern3_25_2_inner" transform="translate(450 225)"/>
</pattern><pattern id="pattern4_25_2" patternUnits="userSpaceOnUse" patternTransform="matrix(900 0 0 450 682.239 309.305)" preserveAspectRatio="none" viewBox="0 0 900 450" width="1" height="1">
<use xlink:href="#pattern4_25_2_inner" transform="translate(0 -450)"/>
<use xlink:href="#pattern4_25_2_inner" transform="translate(450 -225)"/>
<g id="pattern4_25_2_inner">
<g clip-path="url(#clip5_25_2)">
<rect width="450" height="450" fill="black"/>
<rect width="450" height="450"/>
</g>
</g>
<use xlink:href="#pattern4_25_2_inner" transform="translate(450 225)"/>
</pattern><pattern id="pattern5_25_2" patternUnits="userSpaceOnUse" patternTransform="matrix(900 0 0 450 1470 476.055)" preserveAspectRatio="none" viewBox="0 0 900 450" width="1" height="1">
<use xlink:href="#pattern5_25_2_inner" transform="translate(0 -450)"/>
<use xlink:href="#pattern5_25_2_inner" transform="translate(450 -225)"/>
<g id="pattern5_25_2_inner">
<g clip-path="url(#clip6_25_2)">
<rect width="450" height="450" fill="black"/>
<rect width="450" height="450"/>
</g>
</g>
<use xlink:href="#pattern5_25_2_inner" transform="translate(450 225)"/>
</pattern><pattern id="pattern6_25_2" patternUnits="userSpaceOnUse" patternTransform="matrix(900 0 0 450 1470 476.055)" preserveAspectRatio="none" viewBox="0 0 900 450" width="1" height="1">
<use xlink:href="#pattern6_25_2_inner" transform="translate(0 -450)"/>
<use xlink:href="#pattern6_25_2_inner" transform="translate(450 -225)"/>
<g id="pattern6_25_2_inner">
<g clip-path="url(#clip7_25_2)">
<rect width="450" height="450" fill="black"/>
<rect width="450" height="450"/>
</g>
</g>
<use xlink:href="#pattern6_25_2_inner" transform="translate(450 225)"/>
</pattern><pattern id="pattern7_25_2" patternUnits="userSpaceOnUse" patternTransform="matrix(900 0 0 450 1470 627.043)" preserveAspectRatio="none" viewBox="0 0 900 450" width="1" height="1">
<use xlink:href="#pattern7_25_2_inner" transform="translate(0 -450)"/>
<use xlink:href="#pattern7_25_2_inner" transform="translate(450 -225)"/>
<g id="pattern7_25_2_inner">
<g clip-path="url(#clip8_25_2)">
<rect width="450" height="450" fill="black"/>
<rect width="450" height="450"/>
</g>
</g>
<use xlink:href="#pattern7_25_2_inner" transform="translate(450 225)"/>
</pattern><pattern id="pattern8_25_2" patternUnits="userSpaceOnUse" patternTransform="matrix(900 0 0 450 0 728.5)" preserveAspectRatio="none" viewBox="0 0 900 450" width="1" height="1">
<use xlink:href="#pattern8_25_2_inner" transform="translate(0 -450)"/>
<use xlink:href="#pattern8_25_2_inner" transform="translate(450 -225)"/>
<g id="pattern8_25_2_inner">
<g clip-path="url(#clip9_25_2)">
<rect width="450" height="450" fill="black"/>
<rect width="450" height="450"/>
</g>
</g>
<use xlink:href="#pattern8_25_2_inner" transform="translate(450 225)"/>
</pattern><clipPath id="clip1_25_2">
<rect width="450" height="450" fill="white"/>
</clipPath>
<clipPath id="clip2_25_2">
<rect width="450" height="450" fill="white"/>
</clipPath>
<clipPath id="clip3_25_2">
<rect width="450" height="450" fill="white"/>
</clipPath>
<clipPath id="clip4_25_2">
<rect width="450" height="450" fill="white"/>
</clipPath>
<clipPath id="clip5_25_2">
<rect width="450" height="450" fill="white"/>
</clipPath>
<clipPath id="clip6_25_2">
<rect width="450" height="450" fill="white"/>
</clipPath>
<clipPath id="clip7_25_2">
<rect width="450" height="450" fill="white"/>
</clipPath>
<clipPath id="clip8_25_2">
<rect width="450" height="450" fill="white"/>
</clipPath>
<clipPath id="clip9_25_2">
<rect width="450" height="450" fill="white"/>
</clipPath>
</defs>
</svg>
