<svg id="visual" viewBox="0 0 1920 1080" width="1920" height="1080" xmlns="http://www.w3.org/2000/svg" xmlns:xlink="http://www.w3.org/1999/xlink" version="1.1"><rect x="0" y="0" width="1920" height="1080" fill="#235e64"></rect><path d="M0 419L53.3 427.3C106.7 435.7 213.3 452.3 320 470.2C426.7 488 533.3 507 640 510.7C746.7 514.3 853.3 502.7 960 511.3C1066.7 520 1173.3 549 1280 547.8C1386.7 546.7 1493.3 515.3 1600 516.7C1706.7 518 1813.3 552 1866.7 569L1920 586L1920 1081L1866.7 1081C1813.3 1081 1706.7 1081 1600 1081C1493.3 1081 1386.7 1081 1280 1081C1173.3 1081 1066.7 1081 960 1081C853.3 1081 746.7 1081 640 1081C533.3 1081 426.7 1081 320 1081C213.3 1081 106.7 1081 53.3 1081L0 1081Z" fill="#e8f191"></path><path d="M0 657L53.3 635.8C106.7 614.7 213.3 572.3 320 550.8C426.7 529.3 533.3 528.7 640 551.5C746.7 574.3 853.3 620.7 960 628.3C1066.7 636 1173.3 605 1280 600.8C1386.7 596.7 1493.3 619.3 1600 604.3C1706.7 589.3 1813.3 536.7 1866.7 510.3L1920 484L1920 1081L1866.7 1081C1813.3 1081 1706.7 1081 1600 1081C1493.3 1081 1386.7 1081 1280 1081C1173.3 1081 1066.7 1081 960 1081C853.3 1081 746.7 1081 640 1081C533.3 1081 426.7 1081 320 1081C213.3 1081 106.7 1081 53.3 1081L0 1081Z" fill="#e3cd6e"></path><path d="M0 582L53.3 595.2C106.7 608.3 213.3 634.7 320 662.3C426.7 690 533.3 719 640 707.7C746.7 696.3 853.3 644.7 960 642.3C1066.7 640 1173.3 687 1280 704.2C1386.7 721.3 1493.3 708.7 1600 687.8C1706.7 667 1813.3 638 1866.7 623.5L1920 609L1920 1081L1866.7 1081C1813.3 1081 1706.7 1081 1600 1081C1493.3 1081 1386.7 1081 1280 1081C1173.3 1081 1066.7 1081 960 1081C853.3 1081 746.7 1081 640 1081C533.3 1081 426.7 1081 320 1081C213.3 1081 106.7 1081 53.3 1081L0 1081Z" fill="#dba854"></path><path d="M0 817L53.3 804.3C106.7 791.7 213.3 766.3 320 747C426.7 727.7 533.3 714.3 640 707.2C746.7 700 853.3 699 960 693C1066.7 687 1173.3 676 1280 685.8C1386.7 695.7 1493.3 726.3 1600 751C1706.7 775.7 1813.3 794.3 1866.7 803.7L1920 813L1920 1081L1866.7 1081C1813.3 1081 1706.7 1081 1600 1081C1493.3 1081 1386.7 1081 1280 1081C1173.3 1081 1066.7 1081 960 1081C853.3 1081 746.7 1081 640 1081C533.3 1081 426.7 1081 320 1081C213.3 1081 106.7 1081 53.3 1081L0 1081Z" fill="#d08442"></path><path d="M0 883L53.3 861C106.7 839 213.3 795 320 793.2C426.7 791.3 533.3 831.7 640 834.8C746.7 838 853.3 804 960 803.8C1066.7 803.7 1173.3 837.3 1280 839.2C1386.7 841 1493.3 811 1600 800.2C1706.7 789.3 1813.3 797.7 1866.7 801.8L1920 806L1920 1081L1866.7 1081C1813.3 1081 1706.7 1081 1600 1081C1493.3 1081 1386.7 1081 1280 1081C1173.3 1081 1066.7 1081 960 1081C853.3 1081 746.7 1081 640 1081C533.3 1081 426.7 1081 320 1081C213.3 1081 106.7 1081 53.3 1081L0 1081Z" fill="#c06038"></path><path d="M0 843L53.3 853.8C106.7 864.7 213.3 886.3 320 891.7C426.7 897 533.3 886 640 893.2C746.7 900.3 853.3 925.7 960 929.2C1066.7 932.7 1173.3 914.3 1280 902.7C1386.7 891 1493.3 886 1600 888.8C1706.7 891.7 1813.3 902.3 1866.7 907.7L1920 913L1920 1081L1866.7 1081C1813.3 1081 1706.7 1081 1600 1081C1493.3 1081 1386.7 1081 1280 1081C1173.3 1081 1066.7 1081 960 1081C853.3 1081 746.7 1081 640 1081C533.3 1081 426.7 1081 320 1081C213.3 1081 106.7 1081 53.3 1081L0 1081Z" fill="#ad3a34"></path><path d="M0 1031L53.3 1031.3C106.7 1031.7 213.3 1032.3 320 1017.7C426.7 1003 533.3 973 640 969.5C746.7 966 853.3 989 960 996.2C1066.7 1003.3 1173.3 994.7 1280 999.3C1386.7 1004 1493.3 1022 1600 1020.8C1706.7 1019.7 1813.3 999.3 1866.7 989.2L1920 979L1920 1081L1866.7 1081C1813.3 1081 1706.7 1081 1600 1081C1493.3 1081 1386.7 1081 1280 1081C1173.3 1081 1066.7 1081 960 1081C853.3 1081 746.7 1081 640 1081C533.3 1081 426.7 1081 320 1081C213.3 1081 106.7 1081 53.3 1081L0 1081Z" fill="#940933"></path></svg>