<svg xmlns="http://www.w3.org/2000/svg" width="123" height="150">
  <g style="mix-blend-mode:difference;isolation:isolate">
    <g fill="none" stroke-linecap="round">
      <path d="M18 0h78.127c1.193 0 3.57 2.988 7.164 7.407 1.8 2.211 4.35 5.1 6.661 7.945C116.2 23.028 123 30.767 123 30.767V137a13 13 0 01-13 13H18a13 13 0 01-13-13V13A13 13 0 0118 0z"/>
      <path d="M18 8c-2.757 0-5 2.243-5 5v124c0 2.757 2.243 5 5 5h92c2.757 0 5-2.243 5-5V33.762c-2.509-2.897-7.007-8.143-11.253-13.36-1.19-1.463-2.446-2.939-3.623-4.323a231.252 231.252 0 01-3.487-4.174C95.568 10.59 94.327 9.063 93.402 8H18m0-8h78.127c1.193 0 3.57 2.988 7.164 7.407 1.798 2.21 4.35 5.105 6.661 7.945C116.198 23.028 123 30.767 123 30.767V137c0 7.18-5.82 13-13 13H18c-7.18 0-13-5.82-13-13V13C5 5.82 10.82 0 18 0z" fill="#838383"/>
    </g>
    <path d="M93 27.459V.01c1.394 0 2.766 0 3.594-.01.253 0 .792.4 1.55 1.107L123 30.792v4.068h-21.015c-6.66.001-8.985-.904-8.985-7.401z" fill="#838383"/>
    <g transform="translate(672 2195)">
      <rect width="101" height="39" rx="6" transform="translate(-672 -2098)" fill="#b91319"/>
      <text transform="translate(-662 -2066)" fill="#f8f8f8" font-size="40" font-family="ProximaNova-Extrabld, Proxima Nova">
        <tspan x="0" y="0">PDF</tspan>
      </text>
    </g>
    <path d="M99.87 61.229c-2.168-2.275-6.615-3.573-12.9-3.573a65.826 65.826 0 00-11.486 1.081 59.377 59.377 0 01-7.045-8.126 65.717 65.717 0 01-4.333-6.829c2.5-7.586 3.686-13.764 3.686-18.207-.003-4.984-1.845-10.188-7.156-10.188a5.027 5.027 0 00-4.12 2.385c-2.382 4.227-1.3 13.437 2.819 22.541q-2.324 6.983-5.2 13.764a126.434 126.434 0 01-5.854 12.246c-11.92 4.77-19.616 10.297-20.483 14.628a4.687 4.687 0 001.408 4.336 7.066 7.066 0 004.55 1.628c7.91 0 16.256-12.79 20.482-20.482 3.252-1.084 6.5-2.168 9.754-3.036q5.142-1.4 10.4-2.275c8.343 7.476 15.712 8.67 19.4 8.67 4.55 0 6.178-1.845 6.719-3.359a4.838 4.838 0 00-.65-5.2zm-4.337 3.146c-.327 1.623-1.954 2.708-4.227 2.708a10.887 10.887 0 01-1.845-.217 28.974 28.974 0 01-11.918-6.288 54.105 54.105 0 019.1-.757 25.118 25.118 0 015.528.434c1.518.324 3.9 1.3 3.359 4.117zM72.556 59.28q-4.536.85-8.994 2.058-3.885 1.01-7.7 2.275 1.98-3.835 3.686-7.8c1.3-3.036 2.382-6.178 3.469-9.1a63.817 63.817 0 003.466 5.311q2.921 3.724 6.068 7.262zM58.361 18.963a2.345 2.345 0 012.058-1.3c2.275 0 2.709 2.6 2.709 4.66 0 3.466-1.084 8.777-2.926 14.845-3.145-8.451-3.358-15.493-1.841-18.205zm-11.922 50.5c-5.528 9.1-10.838 14.738-14.088 14.738a2.663 2.663 0 01-1.625-.541 2.318 2.318 0 01-.76-2.275c.651-3.25 6.94-7.8 16.473-11.92z" fill="#af6c6c" style="mix-blend-mode:difference;isolation:isolate"/>
  </g>
</svg>
