<svg xmlns="http://www.w3.org/2000/svg" width="150" height="150" viewBox="-28 -15 180 180"><g transform="translate(804 2196)" style="mix-blend-mode:overlay;isolation:isolate"><g transform="translate(-799 -2196)" fill="none" stroke-linecap="round"><path d="M13,0H91.127c1.193,0,3.57,2.988,7.164,7.407,1.8,2.211,4.35,5.1,6.661,7.945C111.2,23.028,118,30.767,118,30.767V137a13,13,0,0,1-13,13H13A13,13,0,0,1,0,137V13A13,13,0,0,1,13,0Z" stroke="none"/><path d="M 13 8 C 10.24299621582031 8 8 10.24299621582031 8 13 L 8 137 C 8 139.7570037841797 10.24299621582031 142 13 142 L 105 142 C 107.7570037841797 142 110 139.7570037841797 110 137 L 110 33.76193237304688 C 107.4912185668945 30.86522674560547 102.9927291870117 25.61906433105469 98.74681854248047 20.40129089355469 C 97.55723571777344 18.93936157226562 96.3013916015625 17.46316528320312 95.12431335449219 16.07862854003906 C 94.00962829589844 14.76750183105469 92.96115875244141 13.53305053710938 91.63720703125 11.9051513671875 C 90.56812286376953 10.58985900878906 89.32730865478516 9.063278198242188 88.40219116210938 8 L 82.67186737060547 8 L 13 8 M 13 0 L 82.67186737060547 0 C 82.67186737060547 0 87.24481201171875 0 91.12694549560547 0 C 92.31992340087891 0 94.69668579101562 2.98834228515625 98.29065704345703 7.407211303710938 C 100.0888671875 9.617782592773438 102.6409759521484 12.51181030273438 104.9520797729492 15.35205078125 C 111.1982345581055 23.02794647216797 118 30.766845703125 118 30.766845703125 L 118 137 C 118 144.1797180175781 112.1797103881836 150 105 150 L 13 150 C 5.820289611816406 150 0 144.1797180175781 0 137 L 0 13 C 0 5.820281982421875 5.820289611816406 0 13 0 Z" stroke="none" fill="#dadada"/></g><path d="M-51.53,33.276V5.827c1.394,0,2.766,0,3.594-.01.253,0,.792.4,1.55,1.107L-21.53,36.609v4.068H-42.545C-49.205,40.678-51.53,39.773-51.53,33.276Z" transform="translate(-659.47 -2201.817)" fill="#dadada"/><g transform="translate(-132 -1)"><rect width="101" height="39" rx="6" transform="translate(-672 -2098)" fill="#cd0209"/><text transform="translate(-662 -2066)" fill="#ffffff" font-size="40" font-family="ProximaNova-Extrabld, Proxima Nova"><tspan x="0" y="0">PDF</tspan></text></g><path d="M72.164,46.131c-2.168-2.275-6.615-3.573-12.9-3.573a65.826,65.826,0,0,0-11.486,1.081,59.377,59.377,0,0,1-7.045-8.126A65.717,65.717,0,0,1,36.4,28.684c2.5-7.586,3.686-13.764,3.686-18.207C40.083,5.493,38.241.289,32.93.289a5.027,5.027,0,0,0-4.12,2.385c-2.382,4.227-1.3,13.437,2.819,22.541q-2.324,6.983-5.2,13.764a126.434,126.434,0,0,1-5.854,12.246C8.655,55.995.959,61.522.092,65.853A4.687,4.687,0,0,0,1.5,70.189a7.066,7.066,0,0,0,4.55,1.628c7.91,0,16.256-12.79,20.482-20.482,3.252-1.084,6.5-2.168,9.754-3.036q5.142-1.4,10.4-2.275c8.343,7.476,15.712,8.67,19.4,8.67,4.55,0,6.178-1.845,6.719-3.359a4.838,4.838,0,0,0-.65-5.2Zm-4.337,3.146C67.5,50.9,65.873,51.985,63.6,51.985a10.887,10.887,0,0,1-1.845-.217A28.974,28.974,0,0,1,49.837,45.48a54.105,54.105,0,0,1,9.1-.757,25.118,25.118,0,0,1,5.528.434c1.518.324,3.9,1.3,3.359,4.117ZM44.85,44.182q-4.536.85-8.994,2.058-3.885,1.01-7.7,2.275,1.98-3.835,3.686-7.8c1.3-3.036,2.382-6.178,3.469-9.1,1.081,1.841,2.275,3.686,3.466,5.311q2.921,3.724,6.068,7.262ZM30.655,3.865a2.345,2.345,0,0,1,2.058-1.3c2.275,0,2.709,2.6,2.709,4.66,0,3.466-1.084,8.777-2.926,14.845C29.351,13.619,29.138,6.577,30.655,3.865Zm-11.922,50.5c-5.528,9.1-10.838,14.738-14.088,14.738a2.663,2.663,0,0,1-1.625-.541,2.318,2.318,0,0,1-.76-2.275C2.911,63.037,9.2,58.487,18.733,54.367Z" transform="translate(-776.294 -2180.902)" fill="#ff0000" style="mix-blend-mode:overlay;isolation:isolate"/></g></svg>
