<svg id="visual" viewBox="0 0 1920 1080" width="1920" height="1080" xmlns="http://www.w3.org/2000/svg" xmlns:xlink="http://www.w3.org/1999/xlink" version="1.1"><rect x="0" y="0" width="1920" height="1080" fill="#001220"></rect><path d="M0 491L64 509.3C128 527.7 256 564.3 384 579.3C512 594.3 640 587.7 768 615C896 642.3 1024 703.7 1152 703C1280 702.3 1408 639.7 1536 618.2C1664 596.7 1792 616.3 1856 626.2L1920 636L1920 1081L1856 1081C1792 1081 1664 1081 1536 1081C1408 1081 1280 1081 1152 1081C1024 1081 896 1081 768 1081C640 1081 512 1081 384 1081C256 1081 128 1081 64 1081L0 1081Z" fill="#165557"></path><path d="M0 816L64 786.8C128 757.7 256 699.3 384 691.5C512 683.7 640 726.3 768 740.7C896 755 1024 741 1152 750C1280 759 1408 791 1536 786C1664 781 1792 739 1856 718L1920 697L1920 1081L1856 1081C1792 1081 1664 1081 1536 1081C1408 1081 1280 1081 1152 1081C1024 1081 896 1081 768 1081C640 1081 512 1081 384 1081C256 1081 128 1081 64 1081L0 1081Z" fill="#0d6d68"></path><path d="M0 772L64 754.5C128 737 256 702 384 680.2C512 658.3 640 649.7 768 646.5C896 643.3 1024 645.7 1152 661C1280 676.3 1408 704.7 1536 733.7C1664 762.7 1792 792.3 1856 807.2L1920 822L1920 1081L1856 1081C1792 1081 1664 1081 1536 1081C1408 1081 1280 1081 1152 1081C1024 1081 896 1081 768 1081C640 1081 512 1081 384 1081C256 1081 128 1081 64 1081L0 1081Z" fill="#128674"></path><path d="M0 773L64 761.8C128 750.7 256 728.3 384 740.2C512 752 640 798 768 819.8C896 841.7 1024 839.3 1152 856.2C1280 873 1408 909 1536 924.3C1664 939.7 1792 934.3 1856 931.7L1920 929L1920 1081L1856 1081C1792 1081 1664 1081 1536 1081C1408 1081 1280 1081 1152 1081C1024 1081 896 1081 768 1081C640 1081 512 1081 384 1081C256 1081 128 1081 64 1081L0 1081Z" fill="#2b9f7c"></path><path d="M0 792L64 811C128 830 256 868 384 886.2C512 904.3 640 902.7 768 890.2C896 877.7 1024 854.3 1152 852.5C1280 850.7 1408 870.3 1536 866.7C1664 863 1792 836 1856 822.5L1920 809L1920 1081L1856 1081C1792 1081 1664 1081 1536 1081C1408 1081 1280 1081 1152 1081C1024 1081 896 1081 768 1081C640 1081 512 1081 384 1081C256 1081 128 1081 64 1081L0 1081Z" fill="#4bb880"></path><path d="M0 948L64 934.5C128 921 256 894 384 903C512 912 640 957 768 972.3C896 987.7 1024 973.3 1152 973.8C1280 974.3 1408 989.7 1536 972.8C1664 956 1792 907 1856 882.5L1920 858L1920 1081L1856 1081C1792 1081 1664 1081 1536 1081C1408 1081 1280 1081 1152 1081C1024 1081 896 1081 768 1081C640 1081 512 1081 384 1081C256 1081 128 1081 64 1081L0 1081Z" fill="#70d07f"></path><path d="M0 945L64 956.5C128 968 256 991 384 995.2C512 999.3 640 984.7 768 988.2C896 991.7 1024 1013.3 1152 1020.8C1280 1028.3 1408 1021.7 1536 1022C1664 1022.3 1792 1029.7 1856 1033.3L1920 1037L1920 1081L1856 1081C1792 1081 1664 1081 1536 1081C1408 1081 1280 1081 1152 1081C1024 1081 896 1081 768 1081C640 1081 512 1081 384 1081C256 1081 128 1081 64 1081L0 1081Z" fill="#99e87c"></path></svg>